<svg width="29" height="31" viewBox="0 0 29 31" fill="none" xmlns="http://www.w3.org/2000/svg">
<g clip-path="url(#clip0_349_15467)">
<path d="M2.86328 19.8123C3.07173 18.7432 3.22548 17.7113 3.49052 16.7093C3.60716 16.2684 3.88824 15.8301 4.20233 15.4907C5.03456 14.5906 6.42487 14.8574 6.87164 15.9972C7.09392 16.564 7.25112 17.1685 7.34324 17.7706C7.4253 18.3061 7.69003 18.4953 8.18648 18.5281C8.68292 18.5609 9.1756 18.6499 9.6711 18.7C10.0792 18.7413 10.3977 18.8905 10.3663 19.3573C10.3345 19.8294 9.98393 19.9145 9.58338 19.9107C8.85836 19.9044 8.13146 19.9363 7.40801 19.9007C6.88641 19.8748 6.68802 20.0227 6.70783 20.5853C6.76474 22.1887 6.7421 22.183 8.33739 22.284C9.26426 22.3426 10.1892 22.4312 11.1158 22.4965C11.7968 22.5445 12.1911 22.9226 12.3643 23.559C12.7765 25.0713 13.1893 26.5835 13.5892 28.0989C13.7763 28.8082 13.5697 29.2907 13.0462 29.4494C12.5042 29.6137 12.0706 29.3484 11.8245 28.6672C11.4616 27.6631 11.0982 26.6586 10.774 25.6418C10.6366 25.211 10.4156 25.0915 9.97859 25.1325C8.55779 25.2652 7.13322 25.3595 5.70991 25.4668C4.63999 25.5472 3.85963 25.0555 3.63389 24.0236C3.33017 22.6302 3.11638 21.2174 2.86328 19.8123Z" fill="#4D5864"/>
<path d="M26.0857 19.8753C25.8273 21.2788 25.6082 22.691 25.2966 24.0825C25.0809 25.0453 24.3084 25.5389 23.3124 25.4695C21.8661 25.3692 20.4195 25.2655 18.9758 25.1327C18.545 25.093 18.3146 25.1951 18.1759 25.6341C17.8543 26.6519 17.4886 27.6557 17.1271 28.6602C16.8809 29.3436 16.4517 29.6107 15.9094 29.4508C15.3827 29.2954 15.1705 28.8103 15.356 28.1054C15.7493 26.6118 16.1609 25.1229 16.5593 23.6305C16.7438 22.9386 17.1503 22.533 17.8926 22.4879C19.0685 22.4163 20.2422 22.3088 21.4184 22.2473C21.8975 22.2224 22.1293 22.095 22.1711 21.5446C22.2953 19.9072 22.3239 19.9094 20.7317 19.9094C20.2557 19.9094 19.7684 19.9706 19.3084 19.8842C19.0409 19.8337 18.6664 19.5852 18.607 19.3559C18.4928 18.9153 18.8623 18.7447 19.2701 18.7006C19.8105 18.6419 20.3472 18.541 20.8889 18.5066C21.3341 18.4782 21.5067 18.2619 21.585 17.843C21.6932 17.264 21.8413 16.6891 22.018 16.1268C22.2072 15.5238 22.5962 15.1093 23.2592 15.0103C23.9811 14.9025 24.5577 15.138 24.9718 15.736C25.6569 16.725 25.8543 17.8616 25.9219 19.032C25.9377 19.3039 25.9241 19.5773 25.9241 19.8498C25.9782 19.8583 26.032 19.8668 26.0857 19.8753Z" fill="#4D5864"/>
<path d="M8.6727 9.24331C8.92234 8.91437 9.04748 8.75889 9.16223 8.59647C9.45777 8.17828 9.53292 7.80582 9.22511 7.29775C8.3124 5.7915 8.45545 3.91626 9.49865 2.56645C10.4966 1.2756 12.2701 0.712338 13.8925 1.1709C15.4783 1.61936 16.6504 3.05749 16.8523 4.80248C17.1736 7.58537 14.3883 9.89331 11.6118 9.09729C10.9958 8.92068 10.4548 8.8718 9.85518 9.09572C9.5521 9.20894 9.1987 9.18402 8.6727 9.24331Z" fill="#4D5864"/>
<path d="M10.3255 30.1157C10.2438 30.1901 10.0451 30.498 9.89669 30.4749C9.70239 30.445 9.44269 30.1788 9.39522 29.9716C9.24808 29.3317 9.15092 28.6744 9.10565 28.0188C9.06603 27.4495 8.77081 27.3297 8.29228 27.3975C8.09012 27.4262 7.88953 27.4637 7.68705 27.4896C5.8242 27.7264 5.82389 27.7258 5.58148 29.596C5.56702 29.7086 5.60443 29.8549 5.54658 29.9303C5.38655 30.1384 5.1891 30.3169 5.00612 30.5074C4.87187 30.281 4.62695 30.0545 4.62663 29.8278C4.62663 29.3569 4.75176 28.8851 4.83414 28.4152C4.90928 27.9866 4.8508 27.6961 4.34084 27.5561C2.70467 27.1076 1.80327 26.0089 1.54452 24.3206C1.23451 22.2994 0.8654 20.287 0.522698 18.2707C0.511379 18.2036 0.486856 18.1257 0.508864 18.0683C0.610417 17.8021 0.726118 17.5413 0.836475 17.2786C1.02638 17.4886 1.33889 17.6744 1.38606 17.9128C1.67719 19.3834 1.90671 20.8663 2.16044 22.3445C2.295 23.1282 2.40253 23.9185 2.58331 24.6918C2.86848 25.913 3.99122 26.7714 5.23846 26.7112C6.36907 26.6566 7.49621 26.5318 8.62524 26.4422C8.91889 26.4189 9.21726 26.3801 9.50652 26.4113C9.648 26.4264 9.87531 26.5712 9.89166 26.6828C10.0498 27.7614 10.1712 28.8451 10.3255 30.1157Z" fill="#4D5864"/>
<path d="M19.664 26.4033C20.9782 26.5071 22.1752 26.5995 23.3718 26.6966C25.0004 26.8291 26.1838 25.9363 26.4728 24.2988C26.8243 22.3072 27.1258 20.3068 27.4779 18.3152C27.549 17.9124 27.4591 17.2066 28.1036 17.317C28.7299 17.4242 28.4438 18.0591 28.3781 18.4694C28.0593 20.4664 27.698 22.4567 27.3767 24.4534C27.1233 26.0287 26.2518 27.0726 24.7382 27.511C24.1226 27.6891 24.0085 27.9932 24.1361 28.5501C24.2374 28.9917 24.3304 29.4471 24.3257 29.8952C24.3235 30.1005 24.0783 30.3033 23.9431 30.5074C23.7629 30.3402 23.4727 30.2002 23.4234 30.0005C23.2775 29.408 23.2715 28.78 23.1165 28.1906C23.0536 27.9518 22.7735 27.6421 22.5477 27.5989C21.8614 27.4677 21.1534 27.4122 20.4541 27.4148C20.2576 27.4154 19.9385 27.6885 19.8898 27.8891C19.7344 28.5262 19.6801 29.1878 19.5867 29.84C19.5361 30.1942 19.4493 30.6035 19.0019 30.4673C18.8227 30.4127 18.6416 29.9709 18.6617 29.7218C18.7381 28.7721 18.9308 27.8323 19.0113 26.8827C19.061 26.2967 19.4276 26.4018 19.664 26.4033Z" fill="#4D5864"/>
<path d="M6.36186 9.94411C7.49969 9.93118 8.41147 10.8051 8.43505 11.931C8.45832 13.0354 7.54371 13.9854 6.43417 14.009C5.31741 14.033 4.39746 13.1335 4.38299 12.0035C4.36853 10.8436 5.22026 9.95704 6.36186 9.94411Z" fill="#4D5864"/>
<path d="M22.5239 9.94473C23.6781 9.93149 24.555 10.7874 24.5679 11.9392C24.5805 13.078 23.7011 13.9936 22.5796 14.009C21.4757 14.0245 20.5312 13.1032 20.5149 11.9953C20.4982 10.8748 21.3968 9.95735 22.5239 9.94473Z" fill="#4D5864"/>
<path d="M17.2519 7.51824C18.2454 7.02309 18.8726 7.82794 19.7703 8.15183C19.4666 7.23755 20.0344 6.92533 20.5302 6.51344C21.8881 5.38597 22.1173 3.43724 21.1169 1.95938C20.13 0.501391 18.2432 0.0286389 16.6643 0.835691C16.4398 0.950489 16.1945 1.02334 15.915 1.00978C16.326 0.378709 16.9563 0.161098 17.6135 0.0541845C19.4015 -0.236594 21.0697 0.657503 21.8105 2.26278C22.5531 3.87278 22.1642 5.72847 20.7732 6.89284C20.3296 7.26404 20.0259 7.56176 20.3268 8.17706C20.4975 8.52682 20.2485 8.67315 19.9136 8.66401C19.802 8.66085 19.681 8.65107 19.5819 8.60566C18.839 8.266 18.1008 7.91624 17.2519 7.51824Z" fill="#4D5864"/>
</g>
<defs>
<clipPath id="clip0_349_15467">
<rect width="28" height="30.5075" fill="white" transform="translate(0.5)"/>
</clipPath>
</defs>
</svg>
