<svg width="29" height="27" viewBox="0 0 29 27" fill="none" xmlns="http://www.w3.org/2000/svg">
<g clip-path="url(#clip0_349_15494)">
<path d="M0.545327 12.1116C1.56193 12.1116 2.5618 12.1116 3.57468 12.1116C3.70796 12.5631 3.83875 13.0066 3.98504 13.5018C3.23189 13.5018 2.50849 13.5018 1.79067 13.5018C1.73426 14.0012 1.84894 14.1699 2.28099 14.2488C3.52819 14.4769 3.33417 14.4605 3.54989 15.4945C3.86851 17.0206 4.5045 18.4138 5.43618 19.6772C5.71141 20.0503 5.71699 20.2227 5.46718 20.6134C5.40147 20.716 5.33452 20.8179 5.2651 20.9187C4.93284 21.4011 4.94958 21.5965 5.35932 22.0018C5.37358 22.0164 5.38845 22.0303 5.40333 22.0443C6.06784 22.6954 6.10441 22.699 6.88298 22.1881C7.41794 21.8374 7.51278 21.8392 8.04154 22.2039C9.44805 23.1729 10.9965 23.8046 12.6975 24.0734C13.1989 24.1529 13.3186 24.2664 13.4252 24.7566C13.4488 24.8653 13.4711 24.9745 13.4915 25.0837C13.6074 25.696 13.7612 25.8216 14.4021 25.8246C14.5466 25.8252 14.6916 25.8276 14.8361 25.8191C15.2105 25.7985 15.4243 25.6134 15.4944 25.2542C15.5291 25.0758 15.5545 24.8956 15.5942 24.7178C15.6946 24.2627 15.813 24.1511 16.2891 24.077C17.4402 23.8986 18.5405 23.56 19.5682 23.0242C20.0858 22.7542 20.5799 22.4381 21.072 22.1238C21.4545 21.8792 21.6138 21.8616 22.0025 22.108C22.1668 22.2124 22.3254 22.3264 22.4885 22.4326C22.7445 22.5995 23.0024 22.5892 23.2311 22.3956C23.4412 22.2172 23.6384 22.0218 23.8225 21.8179C24.0245 21.5952 24.0301 21.3416 23.8708 21.0898C23.7623 20.9181 23.6402 20.7542 23.5311 20.5831C23.3011 20.2221 23.3067 20.0376 23.5578 19.6972C24.4882 18.4338 25.1267 17.0437 25.4534 15.5182C25.4806 15.3895 25.5079 15.2609 25.5321 15.1316C25.648 14.5018 25.6914 14.4569 26.3398 14.321C26.4508 14.2979 26.5629 14.2803 26.6745 14.2597C27.1599 14.1687 27.2337 14.0789 27.243 13.5218C26.5177 13.5218 25.7912 13.5218 25.0232 13.5218C25.1639 13.0449 25.2854 12.6195 25.4199 12.1984C25.4341 12.1541 25.5253 12.1056 25.5804 12.1049C26.5394 12.0995 27.4983 12.1007 28.4926 12.1007C28.4926 12.7961 28.5143 13.4702 28.4852 14.1432C28.4635 14.6468 28.3854 15.1486 28.316 15.6486C28.2682 15.9945 28.0798 16.1583 27.724 16.2045C27.5709 16.2245 27.4171 16.2542 27.2628 16.2566C26.7898 16.2645 26.5648 16.5079 26.4092 16.9393C26.1526 17.6511 25.8333 18.3434 25.5085 19.0291C25.3598 19.3422 25.3567 19.6037 25.5742 19.8719C25.7088 20.0382 25.834 20.2117 25.9654 20.3804C26.1569 20.6274 26.1718 20.8841 25.9902 21.1371C25.0306 22.4733 23.8658 23.6098 22.4953 24.5418C22.2554 24.7051 22.0093 24.6911 21.7768 24.5206C21.5785 24.375 21.3851 24.2233 21.1911 24.0728C20.9561 23.8907 20.7156 23.8816 20.4398 23.9975C19.6544 24.3283 18.864 24.6468 18.0712 24.9587C17.7978 25.0661 17.6168 25.2257 17.5809 25.5224C17.5517 25.7633 17.5084 26.0018 17.478 26.2427C17.4408 26.5394 17.2827 26.7251 16.979 26.7791C15.3258 27.0728 13.6725 27.0728 12.0199 26.7767C11.7292 26.7245 11.5755 26.5412 11.5352 26.2603C11.4992 26.0103 11.4614 25.7603 11.4286 25.5097C11.392 25.2257 11.2166 25.0704 10.9556 24.9666C10.1541 24.648 9.35569 24.3228 8.56038 23.9903C8.29693 23.8798 8.06138 23.8883 7.83512 24.0607C7.65598 24.1972 7.47869 24.3367 7.2983 24.4721C6.98403 24.7081 6.77079 24.7202 6.45341 24.5018C5.12314 23.5855 3.98752 22.4769 3.04778 21.1778C2.83888 20.8895 2.8426 20.645 3.06018 20.3719C3.86603 19.361 3.70238 19.5048 3.24119 18.5321C2.97712 17.9751 2.76388 17.3932 2.55374 16.8137C2.43658 16.4897 2.23946 16.3046 1.88923 16.273C1.67351 16.2536 1.45841 16.2239 1.24393 16.1966C0.957548 16.1602 0.774683 16.0085 0.703397 15.7293C0.537889 15.0849 0.436228 12.8695 0.545327 12.1116Z" fill="#4D5864"/>
<path d="M14.5006 0C17.512 2.80158 20.9083 4.85922 24.9828 5.69964C25.0194 8.14624 24.7429 10.5316 23.9897 12.8538C22.4506 17.5977 19.3971 21.0279 14.7492 23.0807C14.5713 23.1596 14.4324 23.1541 14.2582 23.0771C9.40582 20.9326 6.32625 17.3046 4.86147 12.3258C4.24779 10.2421 4.0048 8.11104 4.02897 5.9466C4.03083 5.76274 4.09096 5.67172 4.27445 5.63167C8.22185 4.77973 11.5209 2.7943 14.4002 0.0752427C14.4287 0.0485437 14.4634 0.0279126 14.5006 0ZM23.9451 7.1068C23.9451 6.99393 23.9364 6.88228 23.947 6.77184C23.9656 6.57949 23.8924 6.48665 23.6916 6.43507C20.3108 5.56007 17.388 3.86408 14.7715 1.62985C14.5657 1.45449 14.4566 1.44539 14.2446 1.62621C11.6293 3.86104 8.70721 5.55825 5.32576 6.43265C5.1274 6.48422 5.05116 6.56978 5.06542 6.76578C5.10943 7.35922 5.13298 7.9551 5.18691 8.54794C5.3487 10.318 5.75968 12.0322 6.42481 13.6863C7.92926 17.4254 10.5278 20.1772 14.221 21.9326C14.3587 21.9982 14.5744 22.0316 14.7015 21.9721C17.3738 20.7288 19.5526 18.9248 21.1457 16.4691C22.9986 13.6129 23.7864 10.449 23.9451 7.1068Z" fill="#4D5864"/>
<path d="M14.9142 20.7742C14.9049 20.5661 14.779 20.4229 14.5503 20.3804C14.3433 20.3422 14.1083 20.5315 14.1027 20.7421C14.0965 20.9775 14.2323 21.1189 14.4623 21.1595C14.6767 21.1972 14.8918 21.0169 14.9142 20.7742ZM14.5081 3.5849C14.7425 3.58429 14.9352 3.40528 14.9098 3.18623C14.8838 2.96232 14.758 2.82276 14.505 2.82337C14.2521 2.82458 14.1275 2.96475 14.104 3.18926C14.0798 3.40953 14.2732 3.58611 14.5081 3.5849ZM6.11496 6.844C5.9166 6.87373 5.77464 6.98902 5.77155 7.23174C5.76783 7.46839 5.93519 7.64375 6.17199 7.62555C6.4032 7.60795 6.55135 7.48659 6.55321 7.24145C6.55569 7.01026 6.38151 6.84096 6.11496 6.844ZM22.8288 7.62858C23.0767 7.60613 23.2336 7.5054 23.2392 7.25298C23.2447 7.01026 23.1208 6.86948 22.8778 6.84703C22.6453 6.82519 22.4606 7.00419 22.46 7.23599C22.4587 7.48417 22.6094 7.5946 22.8288 7.62858Z" fill="white"/>
<path d="M14.9142 20.7742C14.8919 21.0163 14.6762 21.1966 14.4623 21.1589C14.2317 21.1183 14.096 20.9775 14.1028 20.7415C14.1084 20.5315 14.3433 20.3416 14.5503 20.3798C14.7791 20.4229 14.9049 20.5661 14.9142 20.7742Z" fill="#4D5864"/>
<path d="M14.5082 3.5849C14.2733 3.58551 14.0805 3.40954 14.1034 3.18927C14.127 2.96476 14.2516 2.82459 14.5045 2.82337C14.7574 2.82216 14.8832 2.96233 14.9093 3.18624C14.9353 3.40529 14.7419 3.58429 14.5082 3.5849Z" fill="#4D5864"/>
<path d="M6.11494 6.84403C6.38149 6.841 6.55506 7.0103 6.5532 7.24149C6.55072 7.48663 6.40318 7.60799 6.17197 7.62559C5.93579 7.64379 5.76843 7.46843 5.77153 7.23178C5.77525 6.98906 5.9172 6.87377 6.11494 6.84403Z" fill="#4D5864"/>
<path d="M22.8284 7.62869C22.6096 7.59531 22.4584 7.48488 22.459 7.23548C22.4596 7.00429 22.6449 6.82468 22.8768 6.84653C23.1198 6.86898 23.2444 7.00976 23.2382 7.25247C23.2326 7.50551 23.0758 7.60624 22.8284 7.62869Z" fill="#4D5864"/>
<path d="M12.7236 14.4507C13.8965 14.4507 15.0695 14.4507 16.2424 14.4507C16.5091 14.4507 16.5786 14.5188 16.5786 14.7808C16.5786 15.0758 16.5786 15.3709 16.5786 15.6651C16.5786 15.9611 16.5178 16.0188 16.2086 16.0188C14.1777 16.0188 12.1478 16.0188 10.1169 16.0188C9.80192 16.0188 9.48598 16.0197 9.17101 16.0188C8.94976 16.0178 8.86957 15.9384 8.86957 15.7218C8.8686 15.4088 8.86957 15.0957 8.86957 14.7826C8.86957 14.5188 8.93817 14.4507 9.20483 14.4507C10.3778 14.4507 11.5507 14.4507 12.7236 14.4507Z" fill="#4D5864"/>
<path d="M11.9316 10.6497C12.1056 9.84204 12.2775 9.04475 12.4534 8.22949C13.3973 8.42527 14.3316 8.6182 15.2871 8.81682C15.1132 9.62356 14.9413 10.4227 14.7654 11.2361C13.8186 11.0394 12.8795 10.8455 11.9316 10.6497Z" fill="#4D5864"/>
<path d="M9.6792 13.977C9.6792 13.6857 9.67533 13.4048 9.68016 13.1239C9.68306 12.9763 9.77485 12.8931 9.92944 12.8903C10.0966 12.8865 10.2628 12.8893 10.4299 12.8893C12.0985 12.8893 13.7661 12.8893 15.4347 12.8893C15.7013 12.8893 15.769 12.9565 15.769 13.2203C15.769 13.4691 15.769 13.7178 15.769 13.977C13.739 13.977 11.7178 13.977 9.6792 13.977Z" fill="#4D5864"/>
<path d="M15.3613 10.7347C15.4502 10.3224 15.5352 9.92514 15.6241 9.51184C15.8724 9.56197 16.112 9.6102 16.3507 9.65938C17.5371 9.90434 18.7226 10.1493 19.9091 10.3952C20.2801 10.4718 20.4946 10.6978 20.5013 11.0137C20.5091 11.428 20.1313 11.7221 19.7004 11.6332C18.6859 11.4242 17.6724 11.2114 16.6589 11.0014C16.2328 10.9135 15.8077 10.8265 15.3613 10.7347Z" fill="#4D5864"/>
<path d="M14.8047 12.195C14.5787 12.1487 14.3168 12.0948 14.054 12.0399C13.2347 11.8706 12.4164 11.7013 11.5971 11.532C11.5652 11.5254 11.5333 11.5188 11.5024 11.5093C11.371 11.4696 11.2985 11.3599 11.3246 11.2417C11.3526 11.114 11.4686 11.0336 11.6058 11.0601C11.9372 11.1244 12.2666 11.1944 12.5971 11.2625C13.3439 11.4167 14.0898 11.5718 14.8366 11.725C14.9593 11.7505 15.0569 11.7997 15.0743 11.9349C15.0946 12.0796 14.9922 12.1922 14.8047 12.195Z" fill="#4D5864"/>
<path d="M15.6938 8.42339C15.3479 8.3534 15.0494 8.29287 14.7509 8.2314C13.9683 8.06967 13.1857 7.90794 12.4031 7.74527C12.3808 7.74054 12.3586 7.73392 12.3364 7.72825C12.1866 7.68663 12.1161 7.57881 12.1499 7.44451C12.1818 7.31873 12.2949 7.24969 12.4378 7.27806C12.9364 7.37831 13.434 7.48234 13.9315 7.58449C14.5064 7.70271 15.0813 7.82093 15.6552 7.94199C15.7161 7.95523 15.8001 7.97604 15.8243 8.01955C15.8639 8.09142 15.8977 8.1964 15.8716 8.2645C15.8436 8.33733 15.7431 8.38272 15.6938 8.42339Z" fill="#4D5864"/>
</g>
<defs>
<clipPath id="clip0_349_15494">
<rect width="28" height="27" fill="white" transform="translate(0.5)"/>
</clipPath>
</defs>
</svg>
