<svg width="29" height="29" viewBox="0 0 29 29" fill="none" xmlns="http://www.w3.org/2000/svg">
<g clip-path="url(#clip0_349_15478)">
<path d="M14.8275 21.4209C15.0216 20.5501 15.2104 19.7036 15.4103 18.806C15.6556 18.9001 15.877 18.9852 16.0989 19.0703C17.3309 19.5429 18.5611 20.0191 19.796 20.484C19.9674 20.5489 20.0593 20.637 20.1104 20.8203C20.8223 23.3822 21.5429 25.9411 22.26 28.5018C22.2786 28.5673 22.2849 28.6364 22.2995 28.7173C15.0338 28.7173 7.78083 28.7173 0.5 28.7173C1.02591 26.2905 1.54834 23.8769 2.07367 21.4519C2.13352 21.4405 2.18815 21.4215 2.24277 21.4215C3.20162 21.4203 4.16104 21.415 5.11931 21.431C5.21984 21.4328 5.35698 21.54 5.41219 21.637C6.51341 23.5727 7.60475 25.5149 8.69957 27.4548C8.74664 27.5382 8.80185 27.6173 8.87449 27.7304C9.03895 27.4477 9.18829 27.1971 9.33125 26.9423C10.3314 25.1643 11.3326 23.3864 12.3252 21.6042C12.4042 21.4626 12.4867 21.415 12.6407 21.4167C13.3654 21.4251 14.0906 21.4209 14.8275 21.4209Z" fill="#4D5864"/>
<path d="M17.2386 11.728C17.7971 12.3322 18.3149 12.8923 18.8332 13.4518C19.1732 13.8185 19.5154 14.1828 19.8542 14.5506C20.2291 14.9578 20.1802 15.2566 19.6985 15.5042C19.4219 15.6465 19.143 15.784 18.8634 15.9197C18.4677 16.1119 18.3474 16.0875 18.0481 15.7637C17.1759 14.8209 16.3048 13.8762 15.4314 12.9352C15.3372 12.8334 15.2681 12.7227 15.0722 12.8125C14.161 13.2316 13.7386 13.0482 13.3405 12.0709C13.6653 11.9096 13.9931 11.7471 14.3208 11.584C14.4748 11.5072 14.6434 11.4167 14.5312 11.2084C14.4289 11.0185 14.2656 11.1108 14.1238 11.1804C13.8025 11.3381 13.4817 11.4959 13.1394 11.6643C13.0557 11.4858 12.9814 11.328 12.8919 11.1369C13.2283 10.9679 13.5538 10.803 13.8792 10.6405C14.032 10.5643 14.2052 10.4863 14.0896 10.2691C13.9861 10.0744 13.8263 10.1631 13.6851 10.2328C13.3643 10.3899 13.0447 10.55 12.6984 10.7221C12.6094 10.5369 12.531 10.3727 12.4444 10.1923C12.7873 10.0209 13.1086 9.86195 13.4288 9.70064C13.5776 9.62504 13.7589 9.54945 13.6485 9.33099C13.5497 9.13457 13.3916 9.21849 13.2469 9.29052C12.9262 9.45004 12.6036 9.60659 12.2852 9.76314C11.75 9.0548 11.9022 8.35421 12.6617 7.96969C13.9972 7.29409 15.35 6.65124 16.6656 5.93814C18.7983 4.7816 20.3273 3.01791 21.3942 0.817916C21.4802 0.640535 21.547 0.451845 21.6476 0.283988C21.7121 0.175655 21.8202 0.0952983 21.9091 0.00244141C21.991 0.0917269 22.1003 0.167917 22.1508 0.273274C22.5948 1.19768 23.0277 2.12744 23.4647 3.05541C23.4897 3.10898 23.5199 3.16077 23.5403 3.21613C23.6181 3.42743 23.7251 3.51731 23.9848 3.5197C24.7345 3.52624 25.3034 3.89827 25.6172 4.60303C25.9229 5.28993 25.8461 5.95898 25.3876 6.55719C25.2633 6.71969 25.24 6.83397 25.3336 7.02624C25.8084 8.00123 26.2669 8.98397 26.7213 9.96909C26.7783 10.0923 26.7742 10.2447 26.798 10.384C26.6626 10.3911 26.5185 10.4322 26.3924 10.4006C23.907 9.77623 21.4634 9.84468 19.0814 10.8667C18.4747 11.1238 17.8854 11.4233 17.2386 11.728Z" fill="#4D5864"/>
<path d="M16.2966 14.7989C16.7644 15.303 17.1852 15.7542 17.6036 16.2072C18.0702 16.7132 18.502 16.7995 19.1174 16.5019C19.3795 16.3751 19.6346 16.231 19.9001 16.1126C20.4447 15.8709 20.7538 15.4769 20.7114 14.8025C20.8241 14.8025 20.9264 14.8025 21.0281 14.8025C22.0451 14.8025 23.062 14.812 24.0784 14.7953C24.3306 14.7911 24.4236 14.8763 24.484 15.1179C25.3516 18.5894 26.2285 22.059 27.1031 25.5286C27.3472 26.4965 27.5936 27.4643 27.8371 28.4322C27.8586 28.5173 27.8696 28.6054 27.8923 28.7286C27.7726 28.7286 27.6703 28.7286 27.568 28.7286C26.1634 28.7286 24.7595 28.7203 23.3555 28.7364C23.0951 28.7393 22.9929 28.6631 22.922 28.4072C22.1764 25.712 21.4157 23.0209 20.6666 20.3268C20.6138 20.1358 20.5283 20.0322 20.3435 19.962C18.857 19.3989 17.3752 18.8239 15.8922 18.2524C15.7934 18.2144 15.6946 18.1745 15.5615 18.1221C15.8027 17.0298 16.0433 15.9441 16.2966 14.7989Z" fill="#4D5864"/>
<path d="M15.6014 14.8173C15.1993 16.6357 14.8047 18.4208 14.4084 20.2059C14.2893 20.7422 14.2858 20.7417 13.7488 20.7411C13.4031 20.7411 13.0573 20.7411 12.6895 20.7411C13.0213 19.2553 12.7028 17.972 11.6882 16.9012C10.8682 16.0357 9.8472 15.6589 8.67393 15.694C6.5389 15.7577 4.35913 17.9696 5.03671 20.7214C4.10867 20.7214 3.18585 20.7214 2.2334 20.7214C2.65994 18.7488 3.08357 16.7893 3.50953 14.8173C7.53726 14.8173 11.5522 14.8173 15.6014 14.8173Z" fill="#4D5864"/>
<path d="M8.85046 26.503C7.83292 24.6667 6.80841 22.9149 5.88094 21.1107C5.24288 19.8696 5.4422 18.6292 6.31736 17.5583C7.20589 16.4714 8.37801 16.0947 9.71342 16.4441C11.0419 16.7917 11.8496 17.7101 12.15 19.0792C12.2971 19.7506 12.2058 20.4131 11.9095 21.0208C11.5509 21.7554 11.1476 22.4673 10.7495 23.1809C10.1969 24.1708 9.6309 25.1524 9.07012 26.1375C9.01143 26.2381 8.94983 26.3369 8.85046 26.503ZM10.3189 19.8262C10.3201 19.0089 9.67971 18.3411 8.8923 18.3393C8.09384 18.3369 7.44996 18.9857 7.44124 19.8012C7.43253 20.6208 8.06537 21.2917 8.85394 21.297C9.67622 21.3018 10.3178 20.6577 10.3189 19.8262Z" fill="#4D5864"/>
<path d="M27.3601 5.21729C27.5821 5.21729 27.8046 5.21074 28.026 5.21907C28.3143 5.22979 28.5049 5.41669 28.4991 5.66907C28.4938 5.91014 28.3061 6.09229 28.0336 6.09645C27.5797 6.103 27.1259 6.1036 26.6726 6.09348C26.3913 6.08753 26.2182 5.91253 26.2158 5.66312C26.2135 5.41729 26.3919 5.23336 26.665 5.22146C26.8963 5.21134 27.1282 5.21907 27.3601 5.21907C27.3601 5.21848 27.3601 5.21788 27.3601 5.21729Z" fill="#4D5864"/>
<path d="M26.554 1.72209C26.4831 1.89173 26.4483 2.00601 26.3907 2.10601C26.185 2.46256 25.9741 2.81613 25.7602 3.16792C25.5731 3.47565 25.3488 3.55363 25.1164 3.40184C24.9019 3.26196 24.8647 3.0078 25.0286 2.72684C25.2558 2.33756 25.4848 1.94828 25.7248 1.56732C25.8375 1.38756 26.0182 1.27447 26.2182 1.38161C26.3541 1.45363 26.4471 1.60899 26.554 1.72209Z" fill="#4D5864"/>
<path d="M28.0966 3.47687C28.0553 3.53461 27.9978 3.68461 27.8903 3.75544C27.4939 4.01735 27.086 4.2608 26.674 4.49651C26.4404 4.62985 26.2097 4.56794 26.0876 4.37092C25.954 4.15485 25.9993 3.91378 26.2411 3.75961C26.6496 3.4989 27.0645 3.24711 27.4899 3.01735C27.7863 2.85664 28.1006 3.06497 28.0966 3.47687Z" fill="#4D5864"/>
</g>
<defs>
<clipPath id="clip0_349_15478">
<rect width="28" height="28.7368" fill="white" transform="translate(0.5)"/>
</clipPath>
</defs>
</svg>
