<svg width="64" height="64" viewBox="0 0 64 64" fill="none" xmlns="http://www.w3.org/2000/svg">
<path d="M40.552 6.06283L51.2187 16.1198C51.6782 16.5529 51.9545 17.1293 51.9958 17.741C52.037 18.3526 51.8403 18.9574 51.4427 19.442L51.2213 19.6785L40.5547 29.7607C40.0759 30.2169 39.4305 30.4831 38.7505 30.5049C38.0706 30.5267 37.4076 30.3023 36.8971 29.8778C36.3867 29.4533 36.0675 28.8608 36.0048 28.2214C35.9421 27.582 36.1407 26.9443 36.56 26.4386L36.7813 26.202L42.888 20.4336H14.6667C14.0135 20.4335 13.3831 20.2072 12.895 19.7975C12.4069 19.3879 12.0951 18.8235 12.0187 18.2113L12 17.9143C12.0001 17.2978 12.2399 16.7029 12.6739 16.2422C13.1079 15.7816 13.706 15.4873 14.3547 15.4151L14.6667 15.3975H42.9067L36.784 9.62657C36.3245 9.19352 36.0482 8.6171 36.0069 8.00545C35.9657 7.3938 36.1623 6.78897 36.56 6.30444L36.7813 6.06535C37.2402 5.63165 37.8509 5.37087 38.499 5.33195C39.1471 5.29303 39.7879 5.47863 40.3013 5.85394L40.552 6.06283ZM51.976 42.7875L51.992 43.082C51.9919 43.6984 51.7521 44.2934 51.3181 44.754C50.8841 45.2147 50.286 45.509 49.6373 45.5811L49.3253 45.5987H21.104L27.2213 51.3697C27.6805 51.803 27.9563 52.3796 27.997 52.9913C28.0378 53.6029 27.8407 54.2076 27.4427 54.6918L27.2213 54.9284C26.7625 55.3621 26.1517 55.6229 25.5037 55.6618C24.8556 55.7007 24.2147 55.5151 23.7013 55.1398L23.4507 54.9284L12.784 44.8714C12.3245 44.4383 12.0482 43.8619 12.0069 43.2503C11.9657 42.6386 12.1623 42.0338 12.56 41.5493L12.7813 41.3127L23.448 31.2355C23.9268 30.7794 24.5722 30.5131 25.2521 30.4914C25.9321 30.4696 26.5951 30.6939 27.1055 31.1184C27.616 31.5429 27.9352 32.1355 27.9979 32.7749C28.0605 33.4142 27.8619 34.052 27.4427 34.5577L27.2213 34.7942L21.1147 40.5652H49.328C49.9812 40.5653 50.6116 40.7916 51.0997 41.2012C51.5878 41.6108 51.8996 42.1753 51.976 42.7875Z" fill="#88DFFF"/>
</svg>
