<svg width="22" height="24" viewBox="0 0 22 24" fill="none" xmlns="http://www.w3.org/2000/svg">
<path d="M8.23987 4.08514C8.67745 3.95321 9.14702 3.97513 9.57041 4.14725C9.9938 4.31937 10.3455 4.63131 10.5669 5.03114L10.6409 5.18014L11.3029 6.65114C11.5034 7.09771 11.5684 7.59331 11.4898 8.07648C11.4112 8.55965 11.1926 9.00913 10.8609 9.36914L10.7279 9.50114L9.68487 10.4741C9.49687 10.6521 9.63787 11.3411 10.3179 12.5191C10.9299 13.5791 11.4279 14.0741 11.6729 14.1011H11.7159L11.7689 14.0911L13.8189 13.4641C14.0944 13.3796 14.3884 13.3763 14.6658 13.4545C14.9431 13.5327 15.1921 13.6892 15.3829 13.9051L15.4739 14.0201L16.8309 15.9001C17.0968 16.2686 17.2293 16.7167 17.2066 17.1706C17.1839 17.6245 17.0073 18.0571 16.7059 18.3971L16.5839 18.5231L16.0419 19.0371C15.5552 19.4981 14.9463 19.8095 14.2878 19.9345C13.6292 20.0595 12.9486 19.9927 12.3269 19.7421C10.3919 18.9621 8.63387 17.1801 7.03687 14.4141C5.43687 11.6411 4.77187 9.22414 5.06887 7.15414C5.15874 6.52841 5.41641 5.9387 5.8145 5.44764C6.2126 4.95658 6.73626 4.5825 7.32987 4.36514L7.52287 4.30114L8.23987 4.08514Z" fill="white"/>
</svg>
