<svg width="22" height="24" viewBox="0 0 22 24" fill="none" xmlns="http://www.w3.org/2000/svg">
<path d="M4 21C3.16667 21 2.45833 20.7083 1.875 20.125C1.29167 19.5417 1 18.8333 1 18V11C1 10.1667 1.29167 9.45833 1.875 8.875C2.45833 8.29167 3.16667 8 4 8C4.45 8 4.86267 8.09167 5.238 8.275C5.61333 8.45833 5.94233 8.7 6.225 9H7V4H17V9H18C18.8333 9 19.5417 9.29167 20.125 9.875C20.7083 10.4583 21 11.1667 21 12V20H6.225C5.94167 20.3 5.61267 20.5417 5.238 20.725C4.86333 20.9083 4.45067 21 4 21ZM4 19C4.28333 19 4.521 18.904 4.713 18.712C4.905 18.52 5.00067 18.2827 5 18V11C5 10.7167 4.904 10.4793 4.712 10.288C4.52 10.0967 4.28267 10.0007 4 10C3.71733 9.99933 3.48 10.0953 3.288 10.288C3.096 10.4807 3 10.718 3 11V18C3 18.2833 3.096 18.521 3.288 18.713C3.48 18.905 3.71733 19.0007 4 19ZM9 9H15V6H9V9ZM7 18H19V12C19 11.7167 18.904 11.4793 18.712 11.288C18.52 11.0967 18.2827 11.0007 18 11H7V18ZM14 14C14.2833 14 14.521 13.904 14.713 13.712C14.905 13.52 15.0007 13.2827 15 13C14.9993 12.7173 14.9033 12.48 14.712 12.288C14.5207 12.096 14.2833 12 14 12C13.7167 12 13.4793 12.096 13.288 12.288C13.0967 12.48 13.0007 12.7173 13 13C12.9993 13.2827 13.0953 13.5203 13.288 13.713C13.4807 13.9057 13.718 14.0013 14 14ZM17 14C17.2833 14 17.521 13.904 17.713 13.712C17.905 13.52 18.0007 13.2827 18 13C17.9993 12.7173 17.9033 12.48 17.712 12.288C17.5207 12.096 17.2833 12 17 12C16.7167 12 16.4793 12.096 16.288 12.288C16.0967 12.48 16.0007 12.7173 16 13C15.9993 13.2827 16.0953 13.5203 16.288 13.713C16.4807 13.9057 16.718 14.0013 17 14ZM14 17C14.2833 17 14.521 16.904 14.713 16.712C14.905 16.52 15.0007 16.2827 15 16C14.9993 15.7173 14.9033 15.48 14.712 15.288C14.5207 15.096 14.2833 15 14 15C13.7167 15 13.4793 15.096 13.288 15.288C13.0967 15.48 13.0007 15.7173 13 16C12.9993 16.2827 13.0953 16.5203 13.288 16.713C13.4807 16.9057 13.718 17.0013 14 17ZM17 17C17.2833 17 17.521 16.904 17.713 16.712C17.905 16.52 18.0007 16.2827 18 16C17.9993 15.7173 17.9033 15.48 17.712 15.288C17.5207 15.096 17.2833 15 17 15C16.7167 15 16.4793 15.096 16.288 15.288C16.0967 15.48 16.0007 15.7173 16 16C15.9993 16.2827 16.0953 16.5203 16.288 16.713C16.4807 16.9057 16.718 17.0013 17 17ZM8 17H12V12H8V17Z" fill="white"/>
</svg>
