<svg width="88" height="53" viewBox="0 0 88 53" fill="none" xmlns="http://www.w3.org/2000/svg">
<g clip-path="url(#clip0_317_14417)">
<path d="M44.7918 48.2409C44.3517 48.9051 44.0346 49.402 43.7034 49.8846C41.1857 53.4969 37.1726 54.0512 33.8978 51.1461C30.1545 47.8204 26.5247 44.361 22.7341 41.0975C21.868 40.3473 20.5714 39.8838 19.4214 39.7548C18.1294 39.6067 17.519 39.3486 17.5284 37.896C17.5758 28.7649 17.519 19.6337 17.6089 10.5025C17.6183 9.67589 18.2478 8.58646 18.9245 8.08953C21.7213 6.03011 24.6081 4.09971 27.5375 2.24576C31.0536 0.0286701 34.797 -0.492156 39.1555 1.12288C38.3557 1.83484 37.8115 2.36044 37.2247 2.83348C34.319 5.18437 31.3849 7.49703 28.4981 9.8718C23.8793 13.6657 23.0606 19.777 26.5437 24.1539C30.1024 28.6263 35.9659 29.1854 40.7645 25.5014C42.5108 24.1587 44.2712 22.8351 45.9654 21.4303C46.9072 20.6515 47.5981 20.6371 48.5257 21.5115C54.1194 26.7676 59.7841 31.9567 65.3872 37.208C67.8907 39.5541 68.4065 42.5883 66.8637 45.2115C65.1506 48.1214 62.2449 49.2491 58.9843 48.1406C58.0425 47.8204 57.5314 47.7965 56.8405 48.7139C53.949 52.5843 50.3808 52.9044 46.751 49.7843C46.1595 49.273 45.5253 48.8143 44.7918 48.2409Z" fill="white"/>
<path d="M69.613 34.3602C63.423 28.6024 57.4412 23.0406 51.3175 17.3402C52.1267 16.6903 52.7467 16.1982 53.3571 15.7012C54.5734 14.7074 55.534 13.5988 54.4503 11.9503C53.5843 10.6315 52.0794 10.5838 50.4562 11.8595C46.4194 15.0323 42.4016 18.2241 38.4027 21.4399C36.8221 22.7109 35.1516 23.5136 33.0741 22.9593C31.0912 22.4337 29.9128 21.1293 29.3165 19.1798C28.7392 17.2924 29.2171 15.6391 30.6321 14.435C35.5112 10.3066 40.3004 6.02056 45.4635 2.26965C49.6233 -0.754957 54.3983 -0.64028 58.8562 1.92562C62.3108 3.91336 65.5999 6.21646 68.9031 8.46223C69.4047 8.80626 69.8732 9.62811 69.878 10.2349C69.9395 17.947 69.9158 25.659 69.9016 33.3759C69.8969 33.5574 69.7928 33.7438 69.613 34.3602Z" fill="white"/>
<path d="M74.5633 9.09295C78.4486 9.09295 82.0263 9.0165 85.5993 9.16462C86.2098 9.18852 86.9386 10.0773 87.3124 10.7414C87.6106 11.2623 87.4828 12.0459 87.4828 12.7148C87.4923 21.3061 87.497 29.8973 87.4828 38.4886C87.4781 42.8224 86.153 44.1507 81.8938 44.1651C75.3252 44.1842 74.5586 43.4149 74.5586 36.7923C74.5586 28.4686 74.5586 20.145 74.5586 11.8213C74.5633 11.0281 74.5633 10.2302 74.5633 9.09295ZM83.3135 37.7384C83.2757 36.2953 82.5895 35.4353 81.1556 35.3827C79.6459 35.3254 78.742 36.1568 78.7468 37.6619C78.7468 39.0572 79.5797 39.8695 81.0089 39.8981C82.457 39.9268 83.181 39.1384 83.3135 37.7384Z" fill="white"/>
<path d="M12.7343 25.3867C12.7343 30.1506 12.7532 34.9192 12.7296 39.6831C12.7154 42.5453 11.3193 44.0122 8.47986 44.146C7.08854 44.2129 5.68774 44.2129 4.29169 44.146C1.63681 44.0217 0.0467185 42.4831 0.0277889 39.8121C-0.0242676 30.4134 0.00885927 21.0194 0.00412686 11.6206C0.00412686 9.89569 0.766044 9.02605 2.55489 9.0595C5.34701 9.11206 8.13913 9.13595 10.9312 9.04517C12.332 8.99738 12.7769 9.48954 12.758 10.8848C12.6964 15.7203 12.7343 20.5511 12.7343 25.3867ZM8.72595 37.7288C8.66916 36.2906 7.99716 35.4162 6.55377 35.3779C5.17191 35.3397 4.22543 36.0325 4.14971 37.4756C4.06453 38.9998 4.9069 39.8456 6.42127 39.8981C7.88358 39.9507 8.56978 39.1002 8.72595 37.7288Z" fill="white"/>
</g>
<defs>
<clipPath id="clip0_317_14417">
<rect width="87.5116" height="53" fill="white"/>
</clipPath>
</defs>
</svg>
