<svg width="47" height="53" viewBox="0 0 47 53" fill="none" xmlns="http://www.w3.org/2000/svg">
<g clip-path="url(#clip0_317_14487)">
<path d="M28.7829 49.5399C29.0361 48.5885 29.2967 47.6409 29.535 46.6858C30.4509 43.0164 31.3481 39.3432 32.2789 35.6774C32.7368 33.8628 33.3214 33.569 35.1606 34.1126C41.9589 36.1182 46.8249 42.4103 46.9999 49.4334C47.0595 51.7548 45.8532 52.9927 43.4704 52.9927C30.1828 53 16.8952 53 3.60757 52.9927C1.10567 52.9927 -0.0484821 51.8099 0.00364087 49.3636C0.152564 42.4176 5.13031 36.03 11.9026 34.0906C13.712 33.5727 14.2593 33.8775 14.7284 35.7472C15.7597 39.8538 16.7723 43.9677 17.7999 48.0743C17.9265 48.5849 18.1052 49.0807 18.5855 49.6023C18.7418 49.1616 18.928 48.7281 19.0509 48.2763C19.8997 45.1652 20.6816 42.032 21.5974 38.9392C21.9586 37.7197 21.899 36.6875 21.1395 35.6664C20.8081 35.2219 20.5438 34.726 20.2906 34.2302C19.5013 32.6948 20.004 31.7875 21.7426 31.6994C23.0159 31.6369 24.3041 31.6259 25.5737 31.7251C26.9214 31.8279 27.4129 32.7278 26.9289 33.9767C26.873 34.1163 26.8172 34.2706 26.7129 34.3771C24.7211 36.4414 25.2088 38.7077 25.9795 41.1063C26.8693 43.8759 27.532 46.7152 28.2915 49.5252C28.4516 49.5325 28.6154 49.5362 28.7829 49.5399Z" fill="white"/>
<path d="M36.7988 13.3152C36.795 20.6652 30.9424 26.3696 23.4255 26.3549C15.9905 26.3402 10.1491 20.544 10.1416 13.1683C10.1342 5.90644 16.1022 -0.0183652 23.5 6.2129e-07C31.6907 0.0183664 37.3088 7.0341 36.7988 13.3152Z" fill="white"/>
</g>
<defs>
<clipPath id="clip0_317_14487">
<rect width="47" height="53" fill="white"/>
</clipPath>
</defs>
</svg>
