<svg width="80" height="61" viewBox="0 0 80 61" fill="none" xmlns="http://www.w3.org/2000/svg">
<g clip-path="url(#clip0_115_8224)">
<path d="M29.3448 1.48532C13.1379 1.48532 0 14.6626 0 30.9181C0 47.1736 13.1379 60.3509 29.3448 60.3509C45.5516 60.3509 58.6895 47.1736 58.6895 30.9181C58.6895 14.6626 45.5516 1.48532 29.3448 1.48532ZM29.3448 55.5947C15.773 55.5947 4.7712 44.5599 4.7712 30.9474C4.7712 17.335 15.773 6.30017 29.3448 6.30017C42.9165 6.30017 53.9183 17.335 53.9183 30.9474C53.9183 44.5599 42.9165 55.5947 29.3448 55.5947Z" fill="#2CA1CD"/>
<path d="M29.3445 16.3484C21.322 16.3484 14.8184 22.8715 14.8184 30.9181C14.8184 38.9647 21.322 45.4878 29.3445 45.4878C37.367 45.4878 43.8706 38.9647 43.8706 30.9181C43.8706 22.8715 37.367 16.3484 29.3445 16.3484ZM29.3445 41.4963C23.5194 41.4963 18.7979 36.7607 18.7979 30.9181C18.7979 25.0756 23.5194 20.3399 29.3445 20.3399C35.1696 20.3399 39.8911 25.0756 39.8911 30.9181C39.8911 36.7607 35.1696 41.4963 29.3445 41.4963Z" fill="#2CA1CD"/>
<path d="M29.3443 9.308C17.4455 9.308 7.79883 18.9837 7.79883 30.9181C7.79883 42.8526 17.4455 52.5282 29.3443 52.5282C41.243 52.5282 50.8897 42.8526 50.8897 30.9181C50.8897 18.9837 41.243 9.308 29.3443 9.308ZM29.3443 48.7196C19.5426 48.7196 11.5961 40.7492 11.5961 30.9181C11.5961 21.087 19.5426 13.1176 29.3443 13.1176C39.146 13.1176 47.0925 21.088 47.0925 30.9191C47.0925 40.7502 39.146 48.7196 29.3443 48.7196Z" fill="#2CA1CD"/>
<path d="M59.7451 14.9765L60.2062 8.11308L74.5286 0L73.9944 7.95174L79.9998 11.6401L66.5305 18.571L59.7451 14.9765Z" fill="#2CA1CD"/>
<path d="M72.478 7.34451L30.1406 29.3888C29.5791 29.6811 29.4816 30.6101 29.9232 31.4628C30.3648 32.3154 31.1779 32.7701 31.0853 32.818L73.4227 10.7738C74.6374 10.1411 74.7349 9.21217 74.2933 8.3595C73.8526 7.50683 73.0395 7.05213 72.478 7.34451Z" fill="#A77418"/>
</g>
<defs>
<clipPath id="clip0_115_8224">
<rect width="80" height="60.3509" fill="white"/>
</clipPath>
</defs>
</svg>
