<svg width="44" height="60" viewBox="0 0 44 60" fill="none" xmlns="http://www.w3.org/2000/svg">
<g clip-path="url(#clip0_277_13020)">
<path d="M7.33333 0C3.28854 0 0 3.36328 0 7.5V52.5C0 56.6367 3.28854 60 7.33333 60H36.6667C40.7115 60 44 56.6367 44 52.5V18.75H29.3333C27.3052 18.75 25.6667 17.0742 25.6667 15V0H7.33333ZM29.3333 0V15H44L29.3333 0ZM9.16667 7.5H16.5C17.5083 7.5 18.3333 8.34375 18.3333 9.375C18.3333 10.4062 17.5083 11.25 16.5 11.25H9.16667C8.15833 11.25 7.33333 10.4062 7.33333 9.375C7.33333 8.34375 8.15833 7.5 9.16667 7.5ZM9.16667 15H16.5C17.5083 15 18.3333 15.8438 18.3333 16.875C18.3333 17.9062 17.5083 18.75 16.5 18.75H9.16667C8.15833 18.75 7.33333 17.9062 7.33333 16.875C7.33333 15.8438 8.15833 15 9.16667 15ZM15.3771 44.7422C14.6781 47.1211 12.5354 48.75 10.1062 48.75H9.16667C8.15833 48.75 7.33333 47.9062 7.33333 46.875C7.33333 45.8438 8.15833 45 9.16667 45H10.1062C10.9198 45 11.6302 44.4609 11.8594 43.6641L13.5667 37.8633C13.9563 36.5391 15.1479 35.625 16.5 35.625C17.8521 35.625 19.0438 36.5273 19.4333 37.8633L20.7625 42.3867C21.6104 41.6602 22.6875 41.25 23.8333 41.25C25.6552 41.25 27.3167 42.3047 28.1302 43.9688L28.6344 45H34.8333C35.8417 45 36.6667 45.8438 36.6667 46.875C36.6667 47.9062 35.8417 48.75 34.8333 48.75H27.5C26.801 48.75 26.1708 48.3516 25.8615 47.7188L24.8531 45.6445C24.6583 45.2461 24.2688 45 23.8448 45C23.4208 45 23.0198 45.2461 22.8365 45.6445L21.8281 47.7188C21.4958 48.4102 20.774 48.8203 20.0292 48.75C19.2844 48.6797 18.6427 48.1523 18.4365 47.4258L16.5 40.8984L15.3771 44.7422Z" fill="#2CA1CD"/>
</g>
<defs>
<clipPath id="clip0_277_13020">
<rect width="44" height="60" fill="white"/>
</clipPath>
</defs>
</svg>
