<svg width="55" height="60" viewBox="0 0 55 60" fill="none" xmlns="http://www.w3.org/2000/svg">
<g clip-path="url(#clip0_252_13033)">
<path d="M4.625 38.9656C5.03284 36.8629 5.33364 34.8334 5.85221 32.8628C6.08042 31.9957 6.63036 31.1335 7.24489 30.4661C8.87316 28.6959 11.5933 29.2206 12.4674 31.4623C12.9023 32.5769 13.2099 33.7659 13.3901 34.95C13.5507 36.0032 14.0686 36.3754 15.04 36.4399C16.0113 36.5044 16.9752 36.6793 17.9446 36.7779C18.7431 36.8592 19.3662 37.1526 19.3047 38.0706C19.2426 38.9991 18.5567 39.1666 17.773 39.1591C16.3545 39.1467 14.9323 39.2094 13.5169 39.1393C12.4963 39.0884 12.1082 39.3793 12.1469 40.4859C12.2583 43.6393 12.214 43.6281 15.3352 43.8266C17.1487 43.942 18.9584 44.1163 20.7712 44.2447C22.1036 44.3389 22.875 45.0826 23.2139 46.3343C24.0204 49.3085 24.8281 52.2827 25.6105 55.263C25.9765 56.658 25.5724 57.607 24.5482 57.919C23.4877 58.2422 22.6394 57.7205 22.1577 56.3808C21.4479 54.4058 20.7368 52.4303 20.1026 50.4306C19.8337 49.5833 19.4013 49.3482 18.5463 49.4288C15.7664 49.69 12.9792 49.8754 10.1945 50.0863C8.10116 50.2445 6.57438 49.2775 6.13271 47.248C5.53848 44.5077 5.12019 41.7289 4.625 38.9656Z" fill="#2CA1CD"/>
<path d="M50.0595 39.0896C49.5539 41.8498 49.1251 44.6274 48.5155 47.364C48.0935 49.2576 46.5821 50.2283 44.6334 50.0919C41.8037 49.8946 38.9734 49.6906 36.1487 49.4294C35.306 49.3513 34.8551 49.5523 34.5838 50.4157C33.9545 52.4173 33.2391 54.3916 32.5317 56.3671C32.05 57.7112 31.2104 58.2366 30.1493 57.9221C29.1189 57.6163 28.7037 56.6623 29.0666 55.2761C29.8361 52.3385 30.6414 49.4102 31.4207 46.4751C31.7818 45.1143 32.5772 44.3166 34.0296 44.2279C36.3302 44.0871 38.6265 43.8756 40.9278 43.7547C41.8652 43.7057 42.3186 43.4551 42.4004 42.3727C42.6434 39.1523 42.6994 39.1566 39.5843 39.1566C38.653 39.1566 37.6995 39.277 36.7995 39.107C36.2761 39.0078 35.5434 38.519 35.4272 38.0681C35.2039 37.2016 35.9267 36.866 36.7245 36.7792C37.7819 36.6638 38.832 36.4653 39.8919 36.3977C40.7629 36.3419 41.1006 35.9164 41.2538 35.0927C41.4654 33.9539 41.7551 32.8231 42.1008 31.7172C42.4711 30.5312 43.2321 29.7162 44.5294 29.5215C45.9418 29.3093 47.0699 29.7727 47.8801 30.9487C49.2205 32.8938 49.6068 35.1293 49.739 37.4311C49.7698 37.9657 49.7433 38.5035 49.7433 39.0394C49.8491 39.0562 49.9543 39.0729 50.0595 39.0896Z" fill="#2CA1CD"/>
<path d="M15.9896 18.1793C16.478 17.5324 16.7229 17.2266 16.9474 16.9071C17.5256 16.0847 17.6726 15.3521 17.0704 14.3529C15.2847 11.3905 15.5645 7.70243 17.6056 5.0477C19.558 2.50896 23.028 1.40117 26.2022 2.30304C29.3049 3.18505 31.5982 6.01345 31.9931 9.44537C32.6218 14.9186 27.1723 19.4577 21.7399 17.8921C20.5349 17.5448 19.4762 17.4486 18.3032 17.889C17.7102 18.1117 17.0187 18.0627 15.9896 18.1793Z" fill="#2CA1CD"/>
<path d="M19.2239 59.2296C19.064 59.376 18.6752 59.9814 18.3848 59.9361C18.0047 59.8772 17.4966 59.3537 17.4037 58.9462C17.1158 57.6876 16.9257 56.395 16.8371 55.1055C16.7596 53.9859 16.182 53.7502 15.2458 53.8836C14.8502 53.94 14.4578 54.0138 14.0616 54.0647C10.4169 54.5305 10.4163 54.5293 9.94203 58.2074C9.91373 58.4289 9.98693 58.7167 9.87375 58.8649C9.56064 59.2743 9.17433 59.6254 8.81632 60C8.55365 59.5546 8.07446 59.1093 8.07384 58.6633C8.07384 57.7373 8.31867 56.8094 8.47984 55.8852C8.62686 55.0422 8.51244 54.471 7.51468 54.1956C4.31349 53.3135 2.54988 51.1525 2.04362 47.8323C1.43709 43.857 0.714913 39.8991 0.0444093 35.9337C0.0222642 35.8016 -0.0257168 35.6484 0.0173431 35.5355C0.216034 35.012 0.442405 34.4991 0.65832 33.9824C1.02987 34.3955 1.64132 34.7608 1.73359 35.2297C2.30321 38.122 2.75226 41.0385 3.24868 43.9457C3.51196 45.4871 3.72234 47.0414 4.07604 48.5623C4.63398 50.964 6.83064 52.6523 9.27091 52.5339C11.483 52.4266 13.6882 52.1809 15.8972 52.0048C16.4717 51.9589 17.0555 51.8826 17.6214 51.944C17.8983 51.9738 18.343 52.2585 18.375 52.478C18.6844 54.5993 18.9219 56.7306 19.2239 59.2296Z" fill="#2CA1CD"/>
<path d="M37.4943 51.9285C40.0656 52.1326 42.4075 52.3143 44.7487 52.5053C47.9351 52.7659 50.2505 51.0099 50.8158 47.7895C51.5036 43.8725 52.0935 39.9382 52.7824 36.0212C52.9215 35.2291 52.7455 33.841 54.0066 34.0581C55.2319 34.269 54.6722 35.5176 54.5436 36.3245C53.9198 40.252 53.213 44.1665 52.5844 48.0934C52.0886 51.1916 50.3834 53.2447 47.4221 54.1069C46.2177 54.4573 45.9944 55.0553 46.2441 56.1506C46.4422 57.019 46.6243 57.9147 46.615 58.7961C46.6107 59.1999 46.1309 59.5987 45.8664 60C45.5139 59.6713 44.9462 59.3959 44.8496 59.0032C44.5642 57.8378 44.5525 56.6028 44.2492 55.4435C44.1262 54.974 43.5781 54.3649 43.1364 54.2799C41.7936 54.0219 40.4083 53.9127 39.0402 53.9177C38.6557 53.9189 38.0314 54.4561 37.936 54.8506C37.6321 56.1035 37.5257 57.4048 37.343 58.6875C37.244 59.3841 37.0742 60.1892 36.1989 59.9212C35.8482 59.8139 35.4939 58.9449 35.5333 58.4549C35.6828 56.5873 36.0598 54.7389 36.2173 52.8713C36.3145 51.7189 37.0318 51.9254 37.4943 51.9285Z" fill="#2CA1CD"/>
<path d="M11.4687 19.5575C13.6949 19.5321 15.4788 21.2509 15.525 23.4652C15.5705 25.6374 13.781 27.5056 11.6102 27.5521C9.42523 27.5993 7.62533 25.8303 7.59703 23.6079C7.56874 21.3265 9.23515 19.583 11.4687 19.5575Z" fill="#2CA1CD"/>
<path d="M43.0904 19.5588C45.3486 19.5327 47.0642 21.2161 47.0894 23.4813C47.114 25.7211 45.3935 27.5217 43.1993 27.5521C41.0395 27.5825 39.1916 25.7707 39.1596 23.5917C39.127 21.3879 40.8851 19.5836 43.0904 19.5588Z" fill="#2CA1CD"/>
<path d="M32.7757 14.7865C34.7196 13.8127 35.9468 15.3956 37.703 16.0326C37.1088 14.2344 38.2197 13.6204 39.1898 12.8103C41.8466 10.5929 42.295 6.76025 40.3377 3.8537C38.4067 0.986215 34.7153 0.056439 31.626 1.64369C31.1868 1.86947 30.707 2.01275 30.1602 1.98608C30.9641 0.744932 32.1975 0.31695 33.4831 0.10668C36.9815 -0.465203 40.2454 1.29325 41.6947 4.45039C43.1476 7.61684 42.3867 11.2665 39.6653 13.5565C38.7973 14.2865 38.2031 14.8721 38.7918 16.0822C39.1258 16.7701 38.6386 17.0579 37.9835 17.0399C37.7651 17.0337 37.5283 17.0145 37.3345 16.9251C35.881 16.2571 34.4366 15.5692 32.7757 14.7865Z" fill="#2CA1CD"/>
</g>
<defs>
<clipPath id="clip0_252_13033">
<rect width="54.7826" height="60" fill="white"/>
</clipPath>
</defs>
</svg>
