<svg width="36" height="36" viewBox="0 0 36 36" fill="none" xmlns="http://www.w3.org/2000/svg">
<circle cx="18" cy="18" r="18" fill="white"/>
<path d="M17.9996 15.6714C16.1568 15.6714 14.6711 17.1714 14.6711 19C14.6711 20.8286 16.1711 22.3286 17.9996 22.3286C19.828 22.3286 21.328 20.8286 21.328 19C21.328 17.1714 19.828 15.6714 17.9996 15.6714ZM27.9991 19C27.9991 17.6143 27.9991 16.2571 27.9277 14.8714C27.8563 13.2714 27.4848 11.8429 26.3135 10.6857C25.1421 9.51429 23.7279 9.14286 22.1279 9.07143C20.7423 9 19.3852 9 17.9996 9C16.6139 9 15.2568 9 13.8712 9.07143C12.2712 9.14286 10.8427 9.51429 9.68564 10.6857C8.51426 11.8571 8.14285 13.2714 8.07143 14.8714C8 16.2571 8 17.6143 8 19C8 20.3857 8 21.7429 8.07143 23.1286C8.14285 24.7286 8.51426 26.1571 9.68564 27.3143C10.857 28.4857 12.2712 28.8571 13.8712 28.9286C15.2568 29 16.6139 29 17.9996 29C19.3852 29 20.7423 29 22.1279 28.9286C23.7279 28.8571 25.1564 28.4857 26.3135 27.3143C27.4848 26.1429 27.8563 24.7286 27.9277 23.1286C28.0134 21.7571 27.9991 20.3857 27.9991 19ZM17.9996 24.1286C15.1568 24.1286 12.8712 21.8429 12.8712 19C12.8712 16.1571 15.1568 13.8714 17.9996 13.8714C20.8423 13.8714 23.1279 16.1571 23.1279 19C23.1279 21.8429 20.8423 24.1286 17.9996 24.1286ZM23.3422 14.8571C22.6851 14.8571 22.1422 14.3286 22.1422 13.6571C22.1422 12.9857 22.6708 12.4571 23.3422 12.4571C24.0136 12.4571 24.5421 12.9857 24.5421 13.6571C24.5457 13.8136 24.5172 13.9692 24.4582 14.1142C24.3992 14.2592 24.3111 14.3905 24.1993 14.5C24.0898 14.6118 23.9584 14.7 23.8135 14.7589C23.6685 14.8179 23.5129 14.8465 23.3565 14.8429L23.3422 14.8571Z" fill="#808080" fill-opacity="0.55"/>
</svg>
