<svg width="47" height="47" viewBox="0 0 47 47" fill="none" xmlns="http://www.w3.org/2000/svg">
<circle cx="23.5" cy="23.7705" r="22.5" stroke="#2CA1CD"/>
<path d="M41.8715 23.7702C41.8715 33.9167 33.6462 42.142 23.4997 42.142C13.3533 42.142 5.12793 33.9167 5.12793 23.7702C5.12793 13.6238 13.3533 5.39844 23.4997 5.39844C33.6462 5.39844 41.8715 13.6238 41.8715 23.7702Z" stroke="#2CA1CD"/>
<path d="M19.3375 17.197L13.5875 22.8804C13.198 23.2654 13.1906 23.892 13.5709 24.2861L19.3209 30.2446C19.9455 30.8918 21.0405 30.4497 21.0405 29.5502V26.9155C21.0405 26.3632 21.4882 25.9155 22.0405 25.9155H33.1155C33.6678 25.9155 34.1155 25.4677 34.1155 24.9155V22.2346C34.1155 21.6824 33.6678 21.2346 33.1155 21.2346H22.0405C21.4882 21.2346 21.0405 20.7869 21.0405 20.2347V17.9082C21.0405 17.0201 19.9691 16.5726 19.3375 17.197Z" stroke="#2CA1CD"/>
</svg>
