<svg width="50" height="50" viewBox="0 0 50 50" fill="none" xmlns="http://www.w3.org/2000/svg">
<path d="M25 12C22.3488 12.0032 19.8071 13.0804 17.9324 14.9952C16.0577 16.9101 15.0031 19.5063 15 22.2143C14.9976 24.4272 15.7052 26.5799 17.0146 28.3429C17.0146 28.3429 17.2873 28.7096 17.3318 28.7626L25 38L32.6718 28.7579C32.7118 28.7087 32.9854 28.3429 32.9854 28.3429L32.9864 28.3401C34.2948 26.5777 35.0021 24.4261 35 22.2143C34.9969 19.5063 33.9423 16.9101 32.0676 14.9952C30.1929 13.0804 27.6512 12.0032 25 12ZM25 25.9286C24.2808 25.9286 23.5777 25.7107 22.9797 25.3026C22.3817 24.8945 21.9157 24.3144 21.6404 23.6357C21.3652 22.957 21.2932 22.2102 21.4335 21.4897C21.5738 20.7692 21.9201 20.1073 22.4287 19.5879C22.9373 19.0684 23.5852 18.7147 24.2906 18.5714C24.996 18.4281 25.7271 18.5016 26.3916 18.7827C27.056 19.0639 27.624 19.5399 28.0235 20.1507C28.4231 20.7616 28.6364 21.4797 28.6364 22.2143C28.6352 23.199 28.2517 24.143 27.57 24.8393C26.8883 25.5356 25.9641 25.9273 25 25.9286Z" fill="#2CA1CD"/>
<circle cx="25" cy="25" r="24.5" stroke="#2CA1CD"/>
</svg>
