<svg width="22" height="24" viewBox="0 0 22 24" fill="none" xmlns="http://www.w3.org/2000/svg">
<path d="M10.5 0C7.98136 0.00294898 5.56672 0.997261 3.78577 2.76482C2.00482 4.53238 1.00298 6.92886 1.00001 9.42857C0.99769 11.4712 1.66993 13.4583 2.91382 15.0857C2.91382 15.0857 3.17291 15.4243 3.21523 15.4731L10.5 24L17.7882 15.4689C17.8262 15.4234 18.0862 15.0857 18.0862 15.0857L18.087 15.0831C19.3301 13.4564 20.002 11.4702 20 9.42857C19.997 6.92886 18.9952 4.53238 17.2142 2.76482C15.4333 0.997261 13.0186 0.00294898 10.5 0ZM10.5 12.8571C9.81676 12.8571 9.14886 12.6561 8.58076 12.2793C8.01266 11.9026 7.56988 11.3671 7.30842 10.7406C7.04695 10.1141 6.97854 9.42477 7.11183 8.75969C7.24513 8.09461 7.57414 7.4837 8.05727 7.00421C8.5404 6.52471 9.15594 6.19817 9.82605 6.06588C10.4962 5.93359 11.1908 6.00148 11.822 6.26098C12.4532 6.52048 12.9928 6.95993 13.3723 7.52376C13.7519 8.08759 13.9545 8.75046 13.9545 9.42857C13.9534 10.3375 13.5891 11.2089 12.9415 11.8517C12.2939 12.4944 11.4159 12.856 10.5 12.8571Z" fill="white"/>
</svg>
