<svg width="22" height="24" viewBox="0 0 22 24" fill="none" xmlns="http://www.w3.org/2000/svg">
<path d="M11.941 4.2352C11.6514 4.08078 11.3282 4 11 4C10.6718 4 10.3486 4.08078 10.059 4.2352L4.059 7.4352C3.73908 7.60578 3.47155 7.86012 3.28501 8.17101C3.09848 8.4819 2.99996 8.83764 3 9.2002V9.5142L9.709 13.4462L11 12.7282L12.291 13.4462L19 9.5142V9.2002C19 8.83764 18.9015 8.4819 18.715 8.17101C18.5285 7.86012 18.2609 7.60578 17.941 7.4352L11.941 4.2352ZM19 10.6732L13.307 14.0102L19 17.1722V10.6732ZM18.941 18.2842L11 13.8722L3.059 18.2842C3.167 18.7172 3.41674 19.1017 3.76847 19.3764C4.1202 19.6511 4.5537 19.8003 5 19.8002H17C17.4463 19.8003 17.8798 19.6511 18.2315 19.3764C18.5833 19.1017 18.833 18.7172 18.941 18.2842ZM3 17.1732L8.693 14.0102L3 10.6732V17.1732Z" fill="white"/>
</svg>
