<svg width="16" height="16" viewBox="0 0 16 16" fill="none" xmlns="http://www.w3.org/2000/svg">
<path d="M8.941 0.2352C8.65138 0.0807753 8.32821 0 8 0C7.67179 0 7.34862 0.0807753 7.059 0.2352L1.059 3.4352C0.739081 3.60578 0.471548 3.86012 0.285014 4.17101C0.0984807 4.4819 -3.62467e-05 4.83764 1.00039e-08 5.2002V5.5142L6.709 9.4462L8 8.7282L9.291 9.4462L16 5.5142V5.2002C16 4.83764 15.9015 4.4819 15.715 4.17101C15.5285 3.86012 15.2609 3.60578 14.941 3.4352L8.941 0.2352ZM16 6.6732L10.307 10.0102L16 13.1722V6.6732ZM15.941 14.2842L8 9.8722L0.059 14.2842C0.167004 14.7172 0.416741 15.1017 0.768469 15.3764C1.1202 15.6511 1.5537 15.8003 2 15.8002H14C14.4463 15.8003 14.8798 15.6511 15.2315 15.3764C15.5833 15.1017 15.833 14.7172 15.941 14.2842ZM1.00039e-08 13.1732L5.693 10.0102L1.00039e-08 6.6732V13.1732Z" fill="white"/>
</svg>
