<svg width="40" height="40" viewBox="0 0 40 40" fill="none" xmlns="http://www.w3.org/2000/svg">
<path d="M26.9517 13.9658C26.0328 11.7372 24.4487 9.84636 22.4157 8.55109C20.3826 7.25582 17.9995 6.61919 15.5914 6.72801C9.06375 6.72801 3.75 11.2796 3.75 16.881C3.77657 18.4103 4.16989 19.9109 4.8969 21.2566C5.62391 22.6023 6.66336 23.7539 7.92788 24.6144L6.52387 27.4208C6.46681 27.5525 6.45198 27.6986 6.48143 27.8391C6.51088 27.9795 6.58316 28.1074 6.68832 28.2051C6.79348 28.3028 6.92634 28.3654 7.06859 28.3844C7.21085 28.4035 7.3555 28.3779 7.48263 28.3113L11.0398 26.2654C12.0126 26.6033 13.0205 26.8301 14.0444 26.9414C15.4305 26.9414 14.4003 25.1636 14.5595 24.3284C14.5595 19.1008 19.7335 14.8514 26.0807 14.8514C26.2032 14.885 26.3323 14.8853 26.4549 14.8523C26.5775 14.8192 26.689 14.7539 26.7778 14.6633C26.8667 14.5726 26.9296 14.4598 26.9602 14.3366C26.9908 14.2134 26.9879 14.0842 26.9517 13.9625M11.1454 14.814C10.6079 14.814 10.0925 14.6005 9.71251 14.2205C9.33249 13.8405 9.119 13.3251 9.119 12.7876C9.12439 12.2498 9.34322 11.7361 9.72735 11.3596C10.1115 10.9831 10.6295 10.7746 11.1673 10.78C11.7052 10.7853 12.2189 11.0042 12.5954 11.3883C12.9719 11.7724 13.1804 12.2904 13.175 12.8283C13.1652 13.36 12.9467 13.8666 12.5667 14.2387C12.1867 14.6108 11.6756 14.8186 11.1438 14.8173M19.2688 14.8173C18.7337 14.8102 18.2232 14.5918 17.8486 14.2096C17.4739 13.8275 17.2657 13.3128 17.2692 12.7777C17.2728 12.2426 17.4878 11.7306 17.8674 11.3535C18.2471 10.9763 18.7605 10.7647 19.2956 10.7647C19.8307 10.7647 20.3441 10.9763 20.7237 11.3535C21.1033 11.7306 21.3184 12.2426 21.3219 12.7777C21.3254 13.3128 21.1172 13.8275 20.7426 14.2096C20.368 14.5918 19.8574 14.8102 19.3224 14.8173H19.2688Z" fill="white"/>
<path d="M36.2503 24.33C36.2503 19.8498 31.7003 16.205 26.0989 16.205C20.4976 16.205 15.9297 19.7605 15.9297 24.33C15.9297 28.8995 20.4976 32.455 26.0989 32.455C27.1482 32.4594 28.1935 32.3283 29.2092 32.065L32.5697 33.7533C32.6938 33.8165 32.8344 33.8398 32.9722 33.82C33.1101 33.8002 33.2384 33.7384 33.3398 33.6429C33.4412 33.5474 33.5106 33.4229 33.5385 33.2865C33.5665 33.1501 33.5516 33.0084 33.4959 32.8807L32.5876 30.5878C33.6688 29.9299 34.5696 29.0136 35.2089 27.9213C35.8483 26.8289 36.2061 25.5949 36.2503 24.33ZM22.7027 22.978C22.3443 22.978 22.0007 22.8356 21.7473 22.5822C21.4939 22.3288 21.3515 21.9851 21.3515 21.6268C21.3515 21.2684 21.4939 20.9247 21.7473 20.6713C22.0007 20.4179 22.3443 20.2756 22.7027 20.2756C23.0626 20.276 23.408 20.418 23.664 20.671C23.9201 20.924 24.0662 21.2677 24.0709 21.6276C24.0671 21.9876 23.9211 22.3316 23.6648 22.5845C23.4086 22.8374 23.0628 22.9788 22.7027 22.978ZM29.4757 22.978C29.2943 22.9842 29.1135 22.954 28.9441 22.8889C28.7747 22.8238 28.6201 22.7253 28.4895 22.5992C28.359 22.4731 28.2552 22.322 28.1843 22.155C28.1134 21.9879 28.0768 21.8083 28.0768 21.6268C28.0768 21.4453 28.1134 21.2656 28.1843 21.0986C28.2552 20.9315 28.359 20.7804 28.4895 20.6543C28.6201 20.5282 28.7747 20.4297 28.9441 20.3647C29.1135 20.2996 29.2943 20.2693 29.4757 20.2756C29.8259 20.2877 30.1578 20.4354 30.4013 20.6875C30.6447 20.9395 30.7808 21.2763 30.7808 21.6268C30.7808 21.9772 30.6447 22.314 30.4013 22.5661C30.1578 22.8181 29.8259 22.9658 29.4757 22.978Z" fill="white"/>
</svg>
