<svg width="47" height="47" viewBox="0 0 47 47" fill="none" xmlns="http://www.w3.org/2000/svg">
<circle cx="23.5" cy="23.7705" r="22.5" transform="rotate(-180 23.5 23.7705)" stroke="#2CA1CD"/>
<path d="M5.12848 23.7708C5.12848 13.6243 13.3538 5.39898 23.5003 5.39898C33.6467 5.39898 41.8721 13.6243 41.8721 23.7708C41.8721 33.9172 33.6467 42.1426 23.5003 42.1426C13.3538 42.1426 5.12848 33.9172 5.12848 23.7708Z" stroke="#2CA1CD"/>
<path d="M27.6625 30.3441L33.4125 24.6606C33.802 24.2756 33.8094 23.649 33.4291 23.255L27.6791 17.2965C27.0545 16.6492 25.9595 17.0913 25.9595 17.9909L25.9595 20.6256C25.9595 21.1778 25.5118 21.6256 24.9595 21.6256L13.8845 21.6256C13.3322 21.6256 12.8845 22.0733 12.8845 22.6256L12.8845 25.3064C12.8845 25.8586 13.3322 26.3064 13.8845 26.3064L24.9595 26.3064C25.5118 26.3064 25.9595 26.7541 25.9595 27.3064L25.9595 29.6329C25.9595 30.521 27.0309 30.9684 27.6625 30.3441Z" stroke="#2CA1CD"/>
</svg>
