<svg width="50" height="50" viewBox="0 0 50 50" fill="none" xmlns="http://www.w3.org/2000/svg">
<path fill-rule="evenodd" clip-rule="evenodd" d="M23.5003 15C22.1448 15.0001 20.8091 15.3244 19.6045 15.9457C18.3999 16.567 17.3613 17.4674 16.5755 18.5718C15.7896 19.6761 15.2793 20.9523 15.087 22.294C14.8947 23.6357 15.026 25.004 15.47 26.2846C15.9141 27.5652 16.6579 28.7211 17.6395 29.6557C18.6211 30.5904 19.812 31.2768 21.1128 31.6576C22.4136 32.0384 23.7866 32.1026 25.1173 31.8449C26.448 31.5872 27.6977 31.015 28.7623 30.176L32.4143 33.828C32.6029 34.0102 32.8555 34.111 33.1177 34.1087C33.3799 34.1064 33.6307 34.0012 33.8161 33.8158C34.0015 33.6304 34.1066 33.3796 34.1089 33.1174C34.1112 32.8552 34.0104 32.6026 33.8283 32.414L30.1763 28.762C31.1642 27.5086 31.7794 26.0024 31.9514 24.4157C32.1233 22.8291 31.8451 21.226 31.1485 19.7901C30.4519 18.3542 29.3651 17.1434 28.0126 16.2962C26.66 15.4491 25.0962 14.9999 23.5003 15ZM17.0003 23.5C17.0003 21.7761 17.6851 20.1228 18.9041 18.9038C20.123 17.6848 21.7763 17 23.5003 17C25.2242 17 26.8775 17.6848 28.0964 18.9038C29.3154 20.1228 30.0003 21.7761 30.0003 23.5C30.0003 25.2239 29.3154 26.8772 28.0964 28.0962C26.8775 29.3152 25.2242 30 23.5003 30C21.7763 30 20.123 29.3152 18.9041 28.0962C17.6851 26.8772 17.0003 25.2239 17.0003 23.5Z" fill="#2CA1CD"/>
<circle cx="25" cy="25" r="24.5" stroke="#2CA1CD"/>
</svg>
