<svg width="64" height="64" viewBox="0 0 64 64" fill="none" xmlns="http://www.w3.org/2000/svg">
<path d="M32.0007 17.3714C29.092 17.375 26.3033 18.5871 24.2465 20.7419C22.1898 22.8966 21.0327 25.818 21.0293 28.8653C21.0266 31.3554 21.803 33.7778 23.2395 35.7616C23.2395 35.7616 23.5388 36.1744 23.5876 36.2339L32.0007 46.6286L40.4178 36.2287C40.4617 36.1733 40.7619 35.7616 40.7619 35.7616L40.7629 35.7585C42.1985 33.7754 42.9745 31.3542 42.9721 28.8653C42.9687 25.818 41.8117 22.8966 39.7549 20.7419C37.6981 18.5871 34.9095 17.375 32.0007 17.3714ZM32.0007 33.0449C31.2117 33.0449 30.4403 32.7998 29.7842 32.3405C29.1281 31.8813 28.6168 31.2285 28.3148 30.4648C28.0128 29.701 27.9338 28.8607 28.0878 28.0499C28.2417 27.2391 28.6217 26.4944 29.1796 25.9099C29.7376 25.3254 30.4485 24.9273 31.2224 24.766C31.9963 24.6048 32.7985 24.6875 33.5275 25.0039C34.2565 25.3202 34.8796 25.8559 35.318 26.5433C35.7563 27.2306 35.9903 28.0387 35.9903 28.8653C35.989 29.9734 35.5683 31.0357 34.8203 31.8192C34.0724 32.6027 33.0584 33.0435 32.0007 33.0449Z" fill="#88DFFF"/>
<path d="M9.51786 32.0179C9.86729 31.976 10.2216 32.0034 10.5604 32.0985C10.8992 32.1936 11.216 32.3546 11.4926 32.5723C11.7693 32.79 12.0003 33.06 12.1725 33.367C12.3448 33.6741 12.4548 34.0121 12.4964 34.3617C12.9516 38.1275 14.4865 41.681 16.9159 44.5933C19.3452 47.5057 22.5653 49.6524 26.1873 50.7743C29.8093 51.8963 33.6785 51.9455 37.3279 50.9161C40.9773 49.8867 44.2509 47.8227 46.7536 44.9731L42.4536 40.6714C42.3284 40.5464 42.2431 40.3871 42.2085 40.2137C42.1739 40.0402 42.1916 39.8603 42.2593 39.6969C42.327 39.5335 42.4417 39.3939 42.5888 39.2958C42.736 39.1976 42.9089 39.1454 43.0857 39.1457H56.1071C56.3439 39.1457 56.571 39.2398 56.7385 39.4074C56.9059 39.5749 57 39.8021 57 40.039V53.0656C57.0003 53.2425 56.9481 53.4155 56.85 53.5627C56.7519 53.7099 56.6124 53.8246 56.449 53.8924C56.2857 53.9601 56.1059 53.9778 55.9325 53.9432C55.7591 53.9086 55.5999 53.8233 55.475 53.698L50.5464 48.7675C47.3295 52.3244 43.1582 54.8811 38.5295 56.133C33.9009 57.3848 29.0101 57.2791 24.4398 55.8284C19.8696 54.3776 15.8125 51.6431 12.7522 47.9505C9.69179 44.2579 7.75709 39.7629 7.17857 35.0012C7.13669 34.6516 7.16407 34.2972 7.25917 33.9583C7.35426 33.6193 7.51519 33.3024 7.73277 33.0256C7.95035 32.7489 8.22031 32.5178 8.52722 32.3455C8.83412 32.1732 9.17196 32.0631 9.52143 32.0214L9.51786 32.0179ZM32 12.3492C29.2077 12.3493 26.4474 12.9449 23.9034 14.0964C21.3593 15.2478 19.0899 16.9287 17.2464 19.0269L21.5464 23.3286C21.6716 23.4536 21.7569 23.6129 21.7915 23.7863C21.8261 23.9598 21.8084 24.1397 21.7407 24.3031C21.673 24.4665 21.5583 24.6061 21.4112 24.7042C21.264 24.8024 21.0911 24.8546 20.9143 24.8543H7.89286C7.65606 24.8543 7.42896 24.7602 7.26151 24.5926C7.09407 24.4251 7 24.1979 7 23.961V10.9344C6.99969 10.7575 7.05188 10.5845 7.14997 10.4373C7.24805 10.2901 7.38761 10.1754 7.55096 10.1076C7.71431 10.0399 7.89408 10.0222 8.06748 10.0568C8.24089 10.0914 8.40013 10.1767 8.525 10.302L13.4536 15.2325C16.6705 11.6756 20.8418 9.11891 25.4705 7.86703C30.0991 6.61515 34.9899 6.72088 39.5602 8.17161C44.1304 9.62235 48.1875 12.3569 51.2478 16.0495C54.3082 19.7421 56.2429 24.2371 56.8214 28.9988C56.9057 29.7047 56.7062 30.4153 56.2669 30.9741C55.8275 31.5329 55.1842 31.8942 54.4786 31.9786C53.7729 32.0629 53.0626 31.8633 52.5041 31.4238C51.9455 30.9842 51.5843 30.3407 51.5 29.6348C50.9222 24.8676 48.6196 20.477 45.0269 17.2923C41.4342 14.1076 36.8002 12.3492 32 12.3492Z" fill="#88DFFF"/>
</svg>
