<svg width="33" height="33" viewBox="0 0 33 33" fill="none" xmlns="http://www.w3.org/2000/svg">
<path d="M32.5 16.7682C32.5 7.93282 25.3368 0.770752 16.5 0.770752C7.6632 0.770752 0.5 7.93282 0.5 16.7682C0.5 19.3966 1.1352 21.9354 2.332 24.207L0.5464 31.07C0.487012 31.2992 0.488514 31.5399 0.550756 31.7684C0.612998 31.9968 0.733823 32.2051 0.901275 32.3725C1.06873 32.5399 1.277 32.6607 1.50549 32.7229C1.73398 32.7852 1.97475 32.7867 2.204 32.7273L9.068 30.9404C11.3603 32.1434 13.9112 32.7699 16.5 32.7657C25.3368 32.7657 32.5 25.6036 32.5 16.7682ZM16.5 10.3692C17.3487 10.3692 18.1626 10.7063 18.7627 11.3063C19.3629 11.9064 19.7 12.7202 19.7 13.5687V19.9677C19.7 20.8163 19.3629 21.6301 18.7627 22.2301C18.1626 22.8301 17.3487 23.1672 16.5 23.1672H11.7C10.8513 23.1672 10.0374 22.8301 9.43726 22.2301C8.83714 21.6301 8.5 20.8163 8.5 19.9677V13.5687C8.5 12.7202 8.83714 11.9064 9.43726 11.3063C10.0374 10.7063 10.8513 10.3692 11.7 10.3692H16.5ZM21.3 18.6271V14.9093L24.0744 12.2825C24.2447 12.1211 24.4587 12.0131 24.6898 11.972C24.9208 11.9309 25.1589 11.9584 25.3745 12.0512C25.5901 12.144 25.7737 12.298 25.9027 12.4941C26.0316 12.6901 26.1002 12.9197 26.1 13.1544V20.3821C26.1002 20.6167 26.0316 20.8463 25.9027 21.0424C25.7737 21.2385 25.5901 21.3924 25.3745 21.4852C25.1589 21.578 24.9208 21.6056 24.6898 21.5645C24.4587 21.5233 24.2447 21.4154 24.0744 21.2539L21.3 18.6271Z" fill="white"/>
</svg>
