<svg width="1441" height="1004" viewBox="0 0 1441 1004" fill="none" xmlns="http://www.w3.org/2000/svg">
<rect y="367" width="1440" height="385" fill="#E5E5E5" fill-opacity="0.5"/>
<path d="M163 876.5C71.4 912.1 16.1667 808.333 0 752H1440.5C1431.67 763.667 1398.5 785.8 1336.5 781C1259 775 1236.5 830 1163 901C1089.5 972 997.5 1001 893.5 938C789.5 875 730.5 925.5 648.5 978.5C566.5 1031.5 487.5 999 418 901C348.5 803 277.5 832 163 876.5Z" fill="#E5E5E5" fill-opacity="0.5"/>
<path d="M246.829 119.343C92.9362 82.5571 18.821 229.966 1 308.269V367.246H1441C1382.54 119.843 1271.63 151.714 1196.68 174.705C1121.73 197.696 1009.08 214.056 870 68.7461C736 -71.2539 659.043 34.8757 607.079 103.349C555.115 171.822 439.196 165.325 246.829 119.343Z" fill="#E5E5E5" fill-opacity="0.5"/>
</svg>
